<svg xmlns="http://www.w3.org/2000/svg" viewBox="0 0 32 32" fill="none">
  <!-- Shield background -->
  <path d="M16 2L4 6v10c0 8 12 14 12 14s12-6 12-14V6L16 2z" fill="#0c1a2e"/>
  <path d="M16 4L6 7.5v8.5c0 6.5 10 11.5 10 11.5s10-5 10-11.5V7.5L16 4z" fill="#1a2d4a"/>
  
  <!-- Star -->
  <polygon points="16,8 17.5,13 22.5,13 18.5,16.5 20,21.5 16,18 12,21.5 13.5,16.5 9.5,13 14.5,13" fill="#d4af37"/>
  
  <!-- Gold border accent -->
  <path d="M16 2L4 6v10c0 8 12 14 12 14s12-6 12-14V6L16 2z" stroke="#d4af37" stroke-width="1" fill="none"/>
</svg>
